 
<svg id="Layer_2" data-name="Layer 2" viewBox="0 0 44.7 44.24">
  <defs>
    <style>
      .cls-1 {
        fill: #c59848;
      }
    </style>
  </defs>
  <g id="Layer_1-2" data-name="Layer 1">
    <path class="cls-1" d="M6.43,22.12c0-7.4,5.15-13.87,12.35-15.51,8.57-1.96,17.16,3.4,19.08,11.96,1.05,4.68,.12,9.01-2.64,12.93-.38,.53-.92,.73-1.49,.58-.52-.14-.9-.6-.96-1.16-.04-.38,.1-.7,.32-1,1.03-1.43,1.75-3,2.16-4.71,1.73-7.17-2.81-14.49-9.99-16-4.94-1.04-9.21,.31-12.69,3.97-2.08,2.2-3.21,4.87-3.44,7.9-.42,5.54,2.44,10.63,7.45,12.99,4.61,2.17,9.09,1.74,13.36-1.04,.26-.17,.55-.36,.85-.43,.62-.13,1.2,.21,1.44,.77,.24,.57,.07,1.21-.45,1.6-.96,.71-1.99,1.3-3.08,1.77-9.31,4.05-20.04-1.59-21.96-11.56-.19-1-.25-2.02-.37-3.04h.07Zm-2.46,9.09c-.85,.25-1.21,1.18-.75,1.98,.67,1.16,1.43,2.26,2.31,3.27,4,4.6,9.05,7.17,15.12,7.7,3.11,.27,6.14-.17,9.07-1.24,4.24-1.55,7.7-4.15,10.4-7.77,.36-.48,.19-.43,.77-.28,.75,.19,1.49,.41,2.24,.59,.68,.16,1.38-.26,1.53-.93,.06-.27,.04-.57,0-.85-.29-2.11-.61-4.23-.91-6.34-.08-.6-.52-1.07-1.12-1.17-.56-.09-1.14,.21-1.39,.74-.09,.18-.15,.38-.2,.57-2.73,9.53-12.11,15.46-21.9,13.82-4.53-.76-8.33-2.88-11.39-6.31-.85-.95-1.59-1.98-2.22-3.09-.27-.47-.66-.73-1.26-.74-.07,.01-.19,.02-.3,.05ZM41.32,12.68c.45-.45,.51-1.09,.13-1.7C37.54,4.58,31.87,.94,24.42,.12c-3.39-.37-6.69,.14-9.86,1.37-4.14,1.6-7.5,4.22-10.1,7.81-.11,.15-.2,.2-.39,.14-.8-.22-1.59-.44-2.4-.64-.96-.23-1.78,.48-1.65,1.46,.22,1.64,.46,3.28,.7,4.92,.08,.56,.17,1.13,.24,1.69,.08,.63,.53,1.1,1.16,1.19,.59,.08,1.18-.26,1.4-.85,.2-.53,.34-1.09,.53-1.63C7.26,6.46,16.81,1.07,26.29,3.07c4.28,.9,7.88,3,10.77,6.3,.81,.92,1.51,1.92,2.13,2.99,.27,.46,.65,.71,1.19,.72,.37,0,.68-.14,.94-.4Zm-17.64,1.03c-.02-.74-.6-1.31-1.33-1.31-.73,0-1.31,.58-1.33,1.31,0,.18,0,.37,0,.54-.03,.02-.05,.03-.07,.04-.04,.02-.09,.03-.13,.04-1.48,.47-2.46,1.44-2.78,2.97-.15,.72-.11,1.48-.11,2.23,0,1.82,1.31,3.45,3.09,3.81,.58,.12,1.19,.09,1.78,.12,.75,.03,1.29,.55,1.31,1.29,.01,.47,.01,.94,0,1.41-.02,.73-.56,1.26-1.29,1.28-.28,0-.55,0-.83,0-.86,0-1.38-.5-1.41-1.36-.03-.77-.61-1.32-1.35-1.31-.74,.01-1.31,.6-1.29,1.37,.03,1.33,.58,2.41,1.66,3.18,.43,.3,.93,.5,1.43,.76,0,.13,0,.32,0,.5,.03,.72,.61,1.29,1.32,1.29,.71,0,1.3-.56,1.33-1.29,0-.19,0-.38,0-.58,.09-.03,.16-.05,.23-.07,1.47-.49,2.45-1.46,2.76-2.99,.14-.71,.11-1.46,.11-2.2,0-1.82-1.3-3.44-3.09-3.81-.58-.12-1.19-.09-1.78-.12-.75-.03-1.29-.56-1.31-1.3,0-.47-.01-.94,0-1.41,.02-.72,.55-1.25,1.27-1.27,.29,0,.57,0,.86,0,.86,0,1.37,.5,1.41,1.36,.03,.77,.61,1.32,1.36,1.31,.74-.01,1.3-.6,1.29-1.37-.01-.96-.33-1.8-.95-2.53-.57-.67-1.28-1.09-2.14-1.32,0-.21,0-.38,0-.56Z"/>
  </g>
</svg>