<?xml version="1.0" encoding="UTF-8"?>
<svg id="Layer_2" data-name="Layer 2" xmlns="http://www.w3.org/2000/svg" viewBox="0 0 504.71 55.18">
  <defs>
    <style>
      .cls-1 {
        fill: #c59848;
      }

      .cls-2 {
        fill: #1d1d1b;
      }
    </style>
  </defs>
  <g id="Layer_1-2" data-name="Layer 1">
    <g>
      <g>
        <path class="cls-1" d="M287.46,10.64c-1.18,18.9-16.31,33.85-34.8,33.85s-34.12-15.44-34.85-34.78c-.82,3.02-1.27,6.2-1.27,9.48,0,19.87,16.1,35.97,35.97,35.97s35.97-16.1,35.97-35.97c0-2.95-.36-5.82-1.03-8.56Z"/>
        <path class="cls-1" d="M252.63,31.94c-14.21,0-26.03-10.06-28.58-23.36-.04,.61-.06,1.23-.06,1.85,0,15.76,12.77,28.53,28.53,28.53s28.53-12.77,28.53-28.53c0-.33,0-.65-.02-.97-2.89,12.86-14.51,22.48-28.4,22.48Z"/>
        <path class="cls-1" d="M252.63,22.15c-9.86,0-18.28-5.8-21.62-13.98,1.17,10.86,10.36,19.31,21.53,19.31s20.04-8.16,21.47-18.75c-3.49,7.88-11.75,13.41-21.38,13.41Z"/>
        <path class="cls-1" d="M252.63,14.54c-7.15,0-13.25-4.21-15.67-10.13,.85,7.87,7.51,14,15.61,14s14.53-5.92,15.56-13.59c-2.53,5.71-8.52,9.72-15.5,9.72Z"/>
        <path class="cls-1" d="M253.56,7.07c-5.02,.47-9.56-2.55-11.21-7.07,0,.1,.01,.19,.02,.29,.55,5.92,5.53,10.29,11.11,9.76,4.95-.46,8.71-4.62,9.12-9.69-1.48,3.62-4.87,6.31-9.04,6.7Z"/>
      </g>
      <g>
        <g>
          <path class="cls-2" d="M6.28,27.29c1.17,2.22,2.38,4.48,3.65,6.82,.16-.33,.4-.78,.73-1.35,.3-.59,.67-1.26,1.08-2.02,.4-.75,.86-1.59,1.33-2.47,.46-.87,.95-1.78,1.43-2.68,.48-.91,.96-1.79,1.45-2.68,.48-.87,.92-1.69,1.33-2.46h.32c.19,1.59,.35,3.11,.49,4.59,.18,1.48,.33,2.94,.49,4.37,.17,1.42,.33,2.83,.52,4.22,.16,1.4,.35,2.8,.53,4.16-.18-.04-.39-.04-.58-.04h-1.16c-.2,0-.39,0-.59,.04-.17-2.2-.36-4.32-.54-6.39-.17-2.05-.4-4.16-.67-6.31h-.06c-1.14,2.07-2.26,4.14-3.35,6.2-1.1,2.05-2.15,4.22-3.13,6.47h-.23c-.98-2.09-2.02-4.18-3.11-6.26-1.07-2.09-2.16-4.23-3.25-6.41h-.05c-.13,1.02-.25,2.13-.4,3.33-.14,1.2-.26,2.38-.38,3.55-.11,1.16-.22,2.26-.29,3.3-.09,1.02-.13,1.87-.13,2.53-.26-.04-.54-.04-.85-.04-.32,0-.62,0-.88,.04,.21-1.33,.43-2.75,.66-4.24,.25-1.48,.46-2.97,.67-4.48,.21-1.49,.42-2.96,.6-4.43,.17-1.47,.35-2.86,.47-4.18h.43c1.13,2.35,2.28,4.63,3.45,6.84"/>
          <path class="cls-2" d="M35.94,37.8c-.25-.04-.45-.04-.66-.04h-1.3c-.21,0-.43,0-.66,.04-.12-.38-.28-.83-.48-1.36-.2-.55-.41-1.11-.65-1.69-.25-.59-.48-1.19-.74-1.79-.24-.6-.47-1.17-.69-1.72-.52,0-1.06-.04-1.6-.04-.54,0-1.09,0-1.63,0s-1.02,0-1.52,0c-.49,0-.99,.03-1.51,.04-.53,1.3-1,2.52-1.43,3.68-.42,1.16-.75,2.11-.98,2.88-.28-.04-.59-.04-.9-.04-.34,0-.65,0-.92,.04,1.34-2.89,2.65-5.75,3.91-8.61,1.26-2.87,2.56-5.77,3.83-8.73h.48c.4,.96,.83,2,1.3,3.12,.45,1.11,.92,2.23,1.39,3.38,.47,1.14,.96,2.26,1.43,3.38,.48,1.13,.94,2.18,1.38,3.14,.41,.96,.79,1.83,1.12,2.59,.33,.77,.62,1.35,.84,1.73m-10.98-7.71c.43,0,.88,.02,1.35,.04,.46,.02,.91,.02,1.35,.02s.91,0,1.38-.02c.46,0,.92,0,1.38-.04l-2.74-6.29-2.7,6.29Z"/>
          <path class="cls-2" d="M37.77,35.48c.22,.32,.49,.59,.82,.83,.33,.24,.7,.45,1.14,.62,.43,.15,.89,.23,1.42,.23s1.04-.1,1.48-.3c.43-.17,.8-.42,1.11-.75,.31-.34,.56-.71,.71-1.14,.16-.44,.23-.91,.23-1.41,0-.75-.18-1.36-.57-1.79-.39-.44-.88-.82-1.46-1.12-.57-.3-1.2-.57-1.85-.81-.69-.25-1.31-.56-1.89-.92-.56-.38-1.06-.86-1.44-1.43-.39-.58-.59-1.36-.59-2.33,0-.69,.13-1.32,.38-1.89,.25-.56,.62-1.06,1.07-1.48,.48-.41,1.05-.74,1.71-.96,.66-.23,1.4-.35,2.23-.35s1.48,.11,2.06,.28c.57,.21,1.11,.49,1.6,.9-.15,.27-.28,.56-.37,.88-.1,.31-.18,.72-.29,1.19h-.3c-.09-.23-.2-.47-.34-.76-.13-.26-.33-.52-.56-.75-.24-.23-.54-.43-.86-.59-.33-.15-.72-.23-1.18-.23s-.89,.08-1.28,.23c-.39,.14-.72,.36-1.01,.62-.3,.28-.52,.59-.68,.98-.15,.39-.25,.8-.25,1.24,0,.78,.21,1.38,.59,1.83,.4,.45,.86,.82,1.46,1.14,.56,.3,1.2,.57,1.86,.81,.67,.25,1.28,.53,1.87,.88,.57,.34,1.05,.79,1.44,1.33,.38,.54,.59,1.27,.59,2.17,0,.78-.15,1.48-.42,2.16-.27,.68-.65,1.27-1.18,1.78-.52,.5-1.16,.89-1.91,1.17-.75,.27-1.6,.4-2.57,.4s-1.84-.13-2.46-.4c-.66-.28-1.19-.59-1.61-.94,.14-.37,.23-.72,.31-1.04,.05-.29,.1-.68,.16-1.16h.3c.14,.29,.3,.59,.52,.89"/>
          <path class="cls-2" d="M49.11,23.99c-.03-1.05-.07-2.12-.12-3.2,.46,.03,.94,.06,1.4,.07,.47,.03,.92,.04,1.41,.04s.95-.01,1.42-.06c.46-.04,.93-.06,1.39-.06,.7,0,1.37,.06,2,.2,.62,.13,1.19,.34,1.63,.65,.48,.32,.85,.69,1.13,1.2,.26,.5,.4,1.11,.4,1.86s-.16,1.47-.53,2.04c-.35,.58-.8,1.04-1.31,1.42-.51,.37-1.06,.65-1.64,.86-.59,.21-1.13,.33-1.6,.41,.2,.24,.46,.59,.82,1.05,.36,.44,.73,.92,1.16,1.46,.43,.54,.87,1.1,1.35,1.68,.46,.59,.9,1.15,1.32,1.69,.45,.53,.85,1.02,1.24,1.48,.37,.45,.67,.77,.91,1.01-.25-.04-.5-.04-.75-.04h-1.44c-.26,0-.49,0-.74,.04-.24-.35-.61-.86-1.12-1.55-.51-.71-1.06-1.45-1.67-2.24-.62-.78-1.25-1.58-1.88-2.36-.63-.8-1.22-1.46-1.74-2h-.93v1.8c0,1.09,0,2.16,.05,3.22,.05,1.06,.09,2.1,.14,3.12-.39-.04-.79-.04-1.21-.04s-.83,0-1.2,.04c.04-1.02,.09-2.06,.12-3.12,.04-1.06,.06-2.13,.06-3.22v-4.26c0-1.09-.02-2.16-.06-3.21m2.86,4.72c.27,0,.56,.03,.89,.03,.52,0,1.05-.06,1.6-.18,.57-.11,1.07-.32,1.53-.59,.47-.3,.83-.7,1.15-1.19,.3-.47,.46-1.09,.46-1.83,0-.65-.13-1.19-.37-1.6-.24-.42-.54-.76-.91-1.01-.38-.23-.8-.4-1.25-.51-.46-.08-.88-.12-1.31-.12-.58,0-1.05,0-1.43,.04-.38,.02-.7,.04-.97,.07-.04,.93-.07,1.82-.09,2.72-.05,.89-.05,1.78-.05,2.67v1.41c.22,.05,.47,.08,.75,.1"/>
          <path class="cls-2" d="M76.98,37.8c-.21-.04-.44-.04-.64-.04h-1.33c-.19,0-.42,0-.64,.04-.12-.38-.27-.83-.48-1.36-.2-.55-.41-1.11-.64-1.69-.26-.59-.5-1.19-.74-1.79-.24-.6-.47-1.17-.69-1.72-.53,0-1.06-.04-1.6-.04-.54,0-1.08,0-1.62,0s-1.02,0-1.52,0c-.51,0-1.01,.03-1.51,.04-.53,1.3-1.01,2.52-1.44,3.68-.43,1.16-.75,2.11-.96,2.88-.28-.04-.59-.04-.92-.04s-.63,0-.91,.04c1.32-2.89,2.63-5.75,3.91-8.61,1.27-2.87,2.55-5.77,3.83-8.73h.47c.41,.96,.84,2,1.3,3.12,.46,1.11,.93,2.23,1.41,3.38,.48,1.14,.98,2.26,1.45,3.38,.48,1.13,.92,2.18,1.33,3.14,.43,.96,.81,1.83,1.15,2.59,.34,.77,.63,1.35,.82,1.73m-10.96-7.71c.43,0,.87,.02,1.34,.04,.45,.02,.9,.02,1.33,.02,.47,0,.93,0,1.37-.02,.48,0,.94,0,1.4-.04l-2.74-6.29-2.7,6.29Z"/>
          <path class="cls-2" d="M78.78,23.99c-.04-1.05-.08-2.12-.14-3.2,.75,.03,1.48,.06,2.21,.07,.74,.03,1.47,.04,2.22,.04s1.49-.01,2.25-.04c.77-.02,1.59-.05,2.47-.07-.04,.25-.07,.49-.07,.75,0,.23,.03,.5,.07,.74-.44-.06-.97-.09-1.6-.14-.62-.04-1.26-.07-1.91-.09-.65-.04-1.28-.06-1.89-.07-.6-.01-1.1-.01-1.49-.01,0,.58-.02,1.12-.04,1.64v3.18c.02,.48,.04,1,.04,1.54,1.08,0,2.14-.03,3.21-.05,1.06-.04,2.12-.1,3.15-.21-.06,.26-.09,.49-.09,.74s.03,.49,.09,.74c-.4-.05-.87-.09-1.4-.11-.51-.01-1.05-.05-1.63-.06-.54-.02-1.12-.02-1.69-.02h-1.65v2.11c0,1.09,0,2.16,.04,3.22,.04,1.06,.1,2.1,.14,3.12-.38-.04-.79-.04-1.2-.04-.44,0-.84,0-1.23,.04,.06-1.02,.11-2.06,.14-3.12,.04-1.05,.06-2.13,.06-3.22v-4.26c0-1.09-.02-2.15-.06-3.21"/>
          <path class="cls-2" d="M111.45,37.06c-.24-.04-.46-.06-.66-.06h-1.31c-.2,0-.43,.02-.66,.06-.11-.37-.27-.84-.48-1.37-.19-.54-.4-1.1-.65-1.69-.24-.57-.48-1.17-.72-1.78-.25-.6-.48-1.16-.69-1.72-.53-.01-1.06-.02-1.61-.02-.55-.02-1.09-.02-1.64-.02s-1.02,0-1.51,.02c-.51,0-1.01,.01-1.51,.02-.52,1.3-1,2.5-1.44,3.68-.42,1.16-.75,2.12-.96,2.88-.28-.04-.59-.06-.91-.06s-.64,.02-.93,.06c1.34-2.88,2.65-5.76,3.92-8.62,1.28-2.85,2.54-5.76,3.84-8.71h.47c.4,.95,.83,1.99,1.29,3.11,.47,1.11,.93,2.25,1.41,3.37,.48,1.14,.96,2.28,1.44,3.41,.47,1.12,.92,2.16,1.35,3.12,.42,.98,.79,1.82,1.14,2.59,.33,.76,.62,1.35,.84,1.74m-10.98-7.69c.43,0,.88,0,1.33,.02,.46,.02,.9,.03,1.34,.03,.47,0,.93-.01,1.4-.02,.47,0,.91-.02,1.38-.02l-2.75-6.3-2.7,6.3Z"/>
          <path class="cls-2" d="M113.24,23.25c-.05-1.04-.09-2.1-.14-3.2,.22,.04,.42,.06,.62,.09,.2,.03,.41,.04,.6,.04,.2,0,.4,0,.59-.04,.21-.02,.41-.05,.63-.09-.06,1.1-.11,2.16-.15,3.2-.03,1.06-.05,2.12-.05,3.21,0,2.07,.01,3.89,.02,5.42,0,1.51,.03,2.89,.05,4.09,1.17,0,2.29,0,3.36-.02,1.07-.04,2.23-.12,3.46-.29-.08,.3-.11,.53-.11,.74,0,.18,.04,.41,.11,.67-.74-.03-1.52-.04-2.27-.04h-4.57c-.73,0-1.49,.01-2.29,.04,.05-1.01,.09-2.06,.14-3.12,.04-1.05,.07-2.12,.07-3.2v-4.27c0-1.09-.04-2.16-.07-3.21"/>
          <path class="cls-2" d="M133.28,23.66c-.03-1.05-.07-2.12-.13-3.21,.48,.02,.93,.06,1.4,.08,.46,.03,.9,.04,1.38,.04s.93-.03,1.39-.07c.45-.04,.9-.06,1.38-.06,.69,0,1.33,.06,1.95,.21,.63,.12,1.16,.33,1.61,.64,.47,.31,.84,.71,1.11,1.21,.26,.51,.4,1.11,.4,1.86s-.17,1.47-.53,2.04c-.34,.58-.77,1.04-1.27,1.43-.5,.36-1.05,.65-1.63,.85-.57,.21-1.1,.35-1.57,.41,.2,.25,.47,.59,.8,1.04,.35,.45,.72,.94,1.15,1.47,.42,.54,.86,1.1,1.31,1.69,.44,.58,.89,1.15,1.32,1.69,.41,.53,.82,1.02,1.19,1.48,.37,.44,.67,.78,.9,1-.23-.03-.49-.04-.72-.04h-1.45c-.23,0-.47,.01-.69,.04-.25-.34-.61-.87-1.11-1.56-.5-.69-1.04-1.44-1.63-2.22-.61-.79-1.22-1.59-1.84-2.36-.64-.79-1.22-1.46-1.72-2.01h-.94v1.81c0,1.09,.03,2.17,.07,3.22,.04,1.05,.07,2.1,.14,3.12-.38-.03-.78-.04-1.2-.04s-.83,.01-1.2,.04c.06-1.02,.1-2.07,.13-3.12,.06-1.05,.07-2.13,.07-3.22v-4.25c0-1.1-.02-2.17-.07-3.21m2.81,4.72c.26,.01,.56,.02,.88,.02,.5,0,1.04-.06,1.57-.19,.56-.1,1.04-.3,1.51-.59,.44-.28,.84-.68,1.14-1.16,.29-.48,.46-1.1,.46-1.83,0-.65-.13-1.2-.36-1.61-.23-.42-.54-.75-.91-1-.39-.24-.79-.43-1.23-.51-.44-.1-.88-.14-1.29-.14-.58,0-1.04,.02-1.42,.04-.38,.03-.7,.06-.95,.08-.04,.91-.06,1.81-.09,2.7-.04,.9-.06,1.79-.06,2.68v1.41c.24,.05,.48,.09,.76,.1"/>
          <path class="cls-2" d="M160.7,37.46c-.22-.03-.44-.05-.64-.05h-1.3c-.21,0-.42,.01-.64,.05-.12-.37-.27-.84-.45-1.38-.21-.53-.42-1.09-.66-1.68-.23-.58-.47-1.17-.71-1.78-.24-.6-.47-1.16-.68-1.71-.52-.02-1.05-.04-1.59-.05h-3.1c-.48,.01-.96,.03-1.48,.05-.51,1.28-.98,2.5-1.42,3.66-.42,1.18-.74,2.15-.94,2.89-.27-.03-.58-.05-.9-.05s-.63,.01-.9,.05c1.33-2.89,2.59-5.76,3.84-8.62,1.25-2.85,2.51-5.75,3.78-8.7h.46c.38,.96,.8,2,1.27,3.1,.45,1.1,.91,2.24,1.38,3.38,.47,1.15,.94,2.27,1.41,3.39,.47,1.11,.91,2.16,1.32,3.13,.42,.97,.8,1.84,1.12,2.59,.33,.77,.62,1.33,.82,1.73m-10.79-7.7c.42,0,.85,0,1.31,.02,.47,.02,.89,.02,1.32,.02,.46,0,.91,0,1.36-.02,.47,0,.92,0,1.36-.02l-2.7-6.29-2.65,6.29Z"/>
          <path class="cls-2" d="M164.08,29.29c-.32-.55-.67-1.15-1.05-1.81-.38-.65-.78-1.33-1.21-2.05-.43-.72-.83-1.4-1.21-2.06-.38-.63-.73-1.23-1.04-1.75-.3-.53-.52-.91-.71-1.18,.23,.02,.47,.06,.68,.09,.22,.03,.44,.04,.68,.04,.22,0,.46-.01,.65-.04,.24-.03,.45-.06,.69-.09,.73,1.43,1.47,2.85,2.22,4.23,.76,1.4,1.56,2.83,2.41,4.34,.36-.6,.75-1.26,1.16-1.96,.4-.71,.8-1.44,1.21-2.2,.4-.72,.81-1.47,1.17-2.23,.37-.75,.72-1.48,1.05-2.19,.4,.07,.72,.12,.95,.12s.55-.05,.95-.12c-.79,1.2-1.48,2.3-2.09,3.27-.63,.98-1.16,1.87-1.64,2.65-.46,.79-.88,1.5-1.23,2.15-.37,.63-.67,1.21-.93,1.7,0,.62,0,1.28,0,1.96,.01,.7,.01,1.37,.04,2.05,.01,.67,.03,1.28,.06,1.85,.04,.58,.06,1.04,.1,1.38-.4-.03-.78-.04-1.2-.04s-.8,.01-1.19,.04c.1-.87,.16-1.89,.17-3.12,.02-1.21,.04-2.5,.04-3.83-.18-.28-.42-.7-.73-1.21"/>
          <path class="cls-2" d="M186.73,37.46c-.22-.03-.44-.05-.64-.05h-1.3c-.21,0-.4,.01-.64,.05-.11-.37-.28-.84-.47-1.38-.19-.53-.41-1.09-.65-1.68-.23-.58-.47-1.17-.71-1.78-.26-.6-.47-1.16-.69-1.71-.52-.02-1.05-.04-1.59-.05h-3.08c-.5,.01-.99,.03-1.49,.05-.52,1.28-.99,2.5-1.41,3.66-.44,1.18-.77,2.15-.96,2.89-.29-.03-.57-.05-.9-.05s-.64,.01-.9,.05c1.32-2.89,2.59-5.76,3.84-8.62,1.25-2.85,2.5-5.75,3.79-8.7h.44c.4,.96,.82,2,1.27,3.1,.46,1.1,.93,2.24,1.39,3.38,.48,1.15,.93,2.27,1.41,3.39,.47,1.11,.93,2.16,1.33,3.13,.42,.97,.8,1.84,1.13,2.59,.33,.77,.6,1.33,.81,1.73m-10.79-7.7c.42,0,.85,0,1.32,.02,.46,.02,.9,.02,1.31,.02,.46,0,.93,0,1.37-.02,.46,0,.9,0,1.36-.02l-2.71-6.29-2.65,6.29Z"/>
          <path class="cls-2" d="M196.3,31.03c-2.1-2.3-4.21-4.59-6.31-6.86-.03,.45-.04,1.07-.05,1.84-.04,.79-.04,1.85-.04,3.18,0,.35,0,.78,.01,1.29,0,.51,.02,1.04,.03,1.61,0,.56,.01,1.14,.04,1.69,.02,.6,.02,1.13,.03,1.63,.02,.49,.04,.93,.06,1.3,0,.37,.03,.61,.04,.74-.27-.03-.54-.04-.85-.04s-.63,.01-.9,.04c.02-.16,.07-.47,.11-.9,.05-.44,.07-.98,.1-1.6,.04-.62,.06-1.29,.11-2.02,.04-.72,.07-1.45,.09-2.18,.03-.73,.05-1.44,.07-2.12,.01-.69,.02-1.31,.02-1.86,0-1.58,0-2.95,0-4.08-.01-1.15-.04-2-.07-2.55h.38c.99,1.08,2.06,2.25,3.18,3.49,1.13,1.24,2.27,2.49,3.36,3.69,1.11,1.21,2.17,2.37,3.17,3.44,1,1.09,1.87,2,2.61,2.78v-3.38c0-1.73,0-3.43-.03-5.06-.02-1.64-.08-3.19-.15-4.66,.33,.08,.61,.14,.83,.14,.19,0,.45-.05,.77-.14-.02,.37-.07,.92-.11,1.65-.03,.72-.08,1.49-.12,2.31-.01,.84-.07,1.63-.12,2.43-.02,.79-.04,1.43-.04,1.91v1.48c0,.57,.01,1.16,.01,1.77s.02,1.24,.02,1.85,.02,1.19,.03,1.73c0,.54,0,1,0,1.4v.81h-.33c-1.86-2.2-3.85-4.44-5.97-6.75"/>
        </g>
        <g>
          <path class="cls-2" d="M494.7,33.84c-.72-.96-.87-1.87-.89-1.95,0,0,1.88,2.54,4.46,2.53,2.61-.03,3.74-1.83,3.74-1.83,.55-.74,.74-1.95,.74-3.02,0-.19,0-.4-.02-.59-.29-2.47-1.97-3.98-4.58-3.98h-.3c-1.92,.01-3.26,1-4.16,2.43-.89,1.43-1.34,3.23-1.51,4.3-.13,1.06-.88,1.81-1.65,2.12-.75,.34-3.84,.29-3.84,.3-.11,0-25.48,0-27.88,0-4.54,0-12.13,0-18.58,0-6.46,0-17.88,0-17.89,0v-1.97h64.35c.39,.01,2.7,.04,3.04-.12,.33-.18,.43-.27,.51-.65,.6-3.19,1.77-5.03,1.77-5.03,1.69-2.95,3.97-3.48,6.54-3.47,3,.02,6.11,2.39,6.12,5.89,.01,.24,.03,.49,.03,.75,0,1.36-.3,2.8-1.17,4-.86,1.21-2.34,2.06-4.32,2.17-.14,.01-.29,.01-.44,.01h-.05c-2,0-3.34-.97-4.03-1.92"/>
          <path class="cls-2" d="M437.77,26.58l2.03-1.98v5.21c1.56-2.04,3.79-4.86,5.03-5.95,1.3-1.11,3.64-1.96,6.24-1.98,2.03,0,4.25,.59,5.99,2.26,2.46,2.39,2.87,5.47,2.87,7.37,0,1.09-.14,1.8-.14,1.85l-1.92-.38s.1-.56,.1-1.47c0-1.64-.37-4.14-2.27-5.97-1.28-1.24-2.95-1.71-4.62-1.71-2.11-.01-4.21,.83-4.96,1.51-.78,.66-2.47,2.69-3.85,4.49-1.41,1.81-2.59,3.42-2.61,3.43l-1.87,.45v-7.14Z"/>
          <path class="cls-2" d="M421.62,33.98h0v-8.76h1.96v8.88c.01,.12-.63,7.2-8.68,9.33,0,0,6-2.51,6.72-9.45"/>
          <path class="cls-2" d="M398.77,34.76h-.08c-.11,0-6.11-1.07-7.06-8.19,0,0,.94,4.06,6.68,6.06,.31,.1,.52,.16,.62,.18h14.6v-7.58c-.02-1.68-.69-2.75-1.7-3.31-.22-.15-.92-.34-1.68-.33-1.56,.06-3.16,.55-3.75,2.99-.08,.35-.11,.69-.11,.99,.06,5.74,5.87,5.44,5.87,5.44,0,0-3.12,.51-5.62-.97-1.05-.87-2.21-2.35-2.2-4.47,0-.45,.05-.93,.16-1.42,.73-3.44,3.58-4.59,5.65-4.52,1.06,0,1.96,.21,2.64,.57,1.69,.9,2.71,2.78,2.7,5.02v9.54h-16.72Z"/>
          <path class="cls-2" d="M383.29,32.69c0-.48-.12-14.67-.12-14.69h1.96s.12,14.18,.12,14.69c0,4.57,1.61,5.93,1.61,5.93-3.52-1.47-3.54-5.37-3.57-5.93"/>
          <path class="cls-2" d="M341.11,34.16h0s0,0,0,0Zm0,0v-1.96h35.83v-12.73l1.96-1.35v16.04h-37.79Z"/>
          <path class="cls-2" d="M340.17,35.08h0s0-.02,.01-.03c0-.07,.02-.18,.02-.32,.02-.28,.04-.67,.05-1.14,.02-.92,.03-2.1,.03-3.27,0-2.34-.03-2.63-.03-2.63l1.95-1.98s.04,2.27,.04,4.61c0,1.77-.01,3.56-.08,4.54-.04,.36-.01,.5-.15,.88-.17,.45-1.72,6.64-8.43,7.83,0,0,5.98-1.99,6.59-8.49"/>
          <polygon class="cls-2" points="322.14 34.65 322.14 19.47 324.09 17.52 324.09 32.69 334.74 32.69 334.74 27.55 336.7 25.59 336.7 34.65 322.14 34.65"/>
          <path class="cls-2" d="M310.04,42.83c-5.43,0-8.86-4.15-8.89-8.29,0-.28,.02-.58,.06-.85,.37-3.3,2.41-4.85,3.59-5.37,.45-.17,.61-.26,1.03-.29,.03,0,.04,0,.06,0,.05,0-3.21,1.71-2.78,6.51,.32,3.42,2.55,6.33,6.92,6.34,.42,0,.86-.03,1.31-.09,4.14-.61,5.06-3.16,5.42-4.44,.1-.42,.1-.64,.1-.6v-8.44l1.97-1.96v10.45c-.01,.09-.09,1.52-1.03,3.13-.93,1.61-2.85,3.35-6.18,3.79-.52,.08-1.04,.11-1.54,.11h-.04Z"/>
          <polygon class="cls-2" points="327.4 39.62 324.78 39.62 327.4 37.02 327.4 39.62"/>
          <polygon class="cls-2" points="410.68 18.66 408.06 18.66 410.68 16.04 410.68 18.66"/>
          <polygon class="cls-2" points="312.87 26.25 310.25 26.25 312.87 23.63 312.87 26.25"/>
          <polygon class="cls-2" points="331.56 39.62 328.95 39.62 331.56 37.02 331.56 39.62"/>
        </g>
      </g>
    </g>
  </g>
</svg>