 
<svg id="Layer_2" data-name="Layer 2"  viewBox="0 0 43.48 43.48">
  <defs>
    <style>
      .cls-1 {
        fill: #c59848;
      }
    </style>
  </defs>
  <g id="Layer_1-2" data-name="Layer 1">
    <path class="cls-1" d="M43.48,21.77c0,3.57,0,7.13,0,10.7,0,5.24-3.42,9.57-8.52,10.74-.8,.18-1.64,.26-2.47,.26-7.16,.02-14.32,.01-21.48,.01-4.85,0-8.94-2.93-10.48-7.51C.17,34.88,0,33.76,0,32.61c0-7.24-.01-14.49,0-21.73C.02,6.07,3.07,1.95,7.65,.5,8.61,.19,9.61,.01,10.62,.01c7.41,0,14.83-.03,22.24,0,4.9,.02,9.27,3.61,10.32,8.39,.19,.86,.28,1.75,.28,2.63,.03,3.57,.01,7.15,.01,10.73Zm-21.74,19.28h0c3.58,0,7.15,.02,10.73,0,.77,0,1.55-.09,2.29-.27,3.62-.91,6.33-4.26,6.31-8.28-.03-7.17,0-14.34-.01-21.51,0-.58-.04-1.17-.16-1.74-.81-4.02-4.19-6.8-8.33-6.81-7.22-.02-14.43,0-21.65,0-.9,0-1.79,.12-2.64,.41-3.57,1.18-5.85,4.36-5.85,8.17,0,7.15,0,14.3,0,21.45,0,.54,.04,1.08,.12,1.6,.62,3.9,4.09,6.94,8.03,6.98,3.72,.05,7.43,0,11.15,0Zm-6.61-11.08c.78-.77,1.56-1.53,2.31-2.33,.19-.2,.33-.49,.38-.76,.09-.48-.19-.92-.62-1.13-.44-.21-.94-.14-1.3,.23-.8,.79-1.59,1.59-2.38,2.38-.07,.07-.15,.14-.23,.22-.86-.86-1.7-1.72-2.55-2.56-.49-.49-1.18-.51-1.64-.06-.48,.46-.47,1.16,.03,1.66,.59,.6,1.18,1.19,1.78,1.78,.26,.26,.53,.51,.82,.79-.11,.09-.2,.16-.27,.23-.78,.78-1.56,1.56-2.34,2.34-.5,.51-.49,1.22,0,1.68,.46,.42,1.13,.4,1.6-.07,.86-.85,1.7-1.71,2.57-2.58,.39,.39,.76,.76,1.13,1.14,.5,.5,.99,1.01,1.51,1.49,.65,.61,1.67,.31,1.88-.54,.12-.45-.04-.83-.36-1.15-.84-.84-1.68-1.68-2.58-2.57,.11-.08,.19-.13,.26-.19Zm-.35-15.54c1.09,0,2.19,0,3.28,0,.54,0,.96-.28,1.13-.74,.29-.76-.25-1.53-1.1-1.54-1.1-.01-2.21,0-3.31,0-.11,0-.22,0-.34,0,0-.15,0-.26,0-.36,0-1.08,0-2.17,0-3.25,0-.58-.31-1.02-.81-1.17-.76-.23-1.46,.31-1.47,1.14-.01,1.1,0,2.21,0,3.31,0,.1,0,.2,0,.33-.14,0-.24,0-.34,0-1.06,0-2.11,0-3.17,0-.18,0-.36,0-.53,.06-.51,.15-.85,.69-.78,1.2,.08,.6,.55,1.01,1.17,1.02,1.11,0,2.23,0,3.34,0,.1,0,.2,0,.29,.01,.02,.05,.03,.07,.03,.08,0,.7,0,1.4,0,2.09,0,.52-.01,1.04,0,1.56,.03,.63,.53,1.09,1.16,1.07,.64-.01,1.11-.51,1.12-1.21,0-1.19,0-2.38,0-3.61,.13,0,.24,0,.34,0Zm20.1,19.31c.14,0,.29,0,.42-.03,.55-.13,.93-.66,.87-1.2-.06-.6-.53-1.04-1.14-1.04-3.22,0-6.43,0-9.65,0-.1,0-.21,.01-.31,.04-.56,.15-.9,.67-.84,1.25,.07,.56,.54,.98,1.13,.99,1.6,0,3.21,0,4.81,0,1.57,0,3.13,0,4.7,0Zm.08-19.31c.83,0,1.38-.69,1.17-1.45-.14-.53-.58-.83-1.23-.83-2.8,0-5.6,0-8.4,0-.38,0-.75,0-1.13,0-.51,.02-.9,.3-1.06,.75-.28,.77,.29,1.53,1.15,1.53,1.58,0,3.17,0,4.75,0,1.58,0,3.17,0,4.75,0Zm-9.3,12.21c-.15,0-.3,0-.45,.02-.52,.07-.93,.51-.96,1.03-.04,.7,.47,1.23,1.21,1.23,1.99,0,3.98,0,5.97,0,1.19,0,2.38,0,3.56,0,.81,0,1.35-.7,1.15-1.45-.14-.53-.57-.83-1.2-.83-1.57,0-3.15,0-4.72,0-1.52,0-3.04,0-4.55,0Z"/>
  </g>
</svg>