 
<svg id="Layer_2" data-name="Layer 2"  viewBox="0 0 61.34 49.82">
  <defs>
    <style>
      .cls-1 {
        fill: #c59848;
      }
    </style>
  </defs>
  <g id="Layer_1-2" data-name="Layer 1">
    <path class="cls-1" d="M31.15,45.65c-6.76,2.5-16.81,1.84-24.27-5.55C-.29,32.99-2.08,21.83,2.57,12.8,7.34,3.55,17.06-1.02,26.48,.19c10.59,1.37,17.19,9.22,19.19,15.68-.63,.22-1.26,.43-1.93,.66-.78-2.19-1.84-4.21-3.21-5.98-2.11,.96-4.18,1.91-6.29,2.87,.63,1.96,1.13,4.05,1.35,6.24-.69,.08-1.36,.15-2.06,.23-.25-2.04-.67-4.01-1.34-5.95-2.49,.67-5,1.05-7.58,1.13v7.35h6.63v2.09h-6.63v7.37c1.2,.11,2.39,.21,3.63,.32-.1,.73-.2,1.4-.29,2.07-1.12-.1-2.21-.19-3.33-.29v10.84c2.01-.09,3.94-.48,5.86-1.12,.23,.66,.45,1.3,.68,1.94ZM18.74,2.67C9.79,4.48,1.15,13.37,2.18,25.36c.98,11.32,10.04,17.92,16.95,19.02,0-.02,0-.05-.02-.07-.14-.19-.27-.39-.41-.58-1.66-2.31-3.13-4.73-4.32-7.32-.37-.82-.38-.82-1.22-.51-.92,.35-1.84,.72-2.78,1.09-.28-.62-.56-1.23-.86-1.91,1.25-.49,2.47-.97,3.71-1.46-1.06-2.93-1.72-5.94-1.9-9.07H4.84v-2.11h6.45c.05-3.17,.61-6.21,1.59-9.16-1.32-.54-2.59-1.06-3.88-1.58,.32-.68,.61-1.3,.89-1.89,1.26,.51,2.49,1,3.73,1.5,1.31-3.16,3.02-5.99,5.12-8.64Zm3.72,12.4c-2.59-.11-5.09-.51-7.56-1.2-.94,2.8-1.47,5.63-1.5,8.56h9.07v-7.36Zm-9.03,9.49c.18,2.95,.81,5.75,1.83,8.49,2.39-.64,4.78-1,7.2-1.11v-7.38H13.44ZM31.43,11.98c-.03-.1-.03-.15-.05-.19-1.49-3.48-3.51-6.63-6.08-9.42-.2-.22-.42-.27-.7-.2V12.98c2.32-.06,4.58-.4,6.82-1ZM22.47,2.16c-.35-.1-.56,.06-.77,.28-2.35,2.58-4.25,5.46-5.69,8.63-.12,.26-.23,.53-.35,.79,1.41,.54,5.89,1.23,6.81,1.04V2.16Zm-.02,42.77v-10.88c-2.18,.11-4.28,.41-6.36,.97,.02,.08,.02,.12,.03,.15,1.54,3.45,3.58,6.59,5.95,9.53,.08,.09,.21,.14,.38,.24ZM28.42,2.72c2.06,2.66,3.75,5.52,5.04,8.64,1.96-.67,3.81-1.5,5.61-2.52-2.97-3.11-6.49-5.15-10.65-6.12Zm3.17,37.16c2.99,8.06,12.3,12.08,20.22,8.79,6.13-2.55,9.92-8.73,9.49-15.18-.2-3.03-1.18-5.78-3-8.21-4.34-5.79-11.85-7.78-18.49-4.93-1.38,.59-2.65,1.39-3.79,2.36-.4,.34-.51,.84-.31,1.27,.21,.43,.65,.68,1.14,.56,.24-.06,.47-.21,.67-.37,3.29-2.59,6.99-3.55,11.11-2.74,7.47,1.47,12.17,9.12,10.15,16.48-2.22,8.09-11.15,12.12-18.71,8.44-5.55-2.71-8.51-9.06-7.02-15.05,.3-1.22,.77-2.37,1.38-3.46,.22-.39,.21-.79-.05-1.16-.26-.36-.63-.47-1.06-.4-.37,.07-.59,.32-.76,.63-1.3,2.34-1.97,4.85-1.97,8.01-.01,1.38,.31,3.12,1,4.98Zm11-11.62c-1.29,1.37-1.48,3.43-.44,4.83,.48,.65,1.12,1.11,1.82,1.49,.87,.47,1.77,.89,2.63,1.37,.46,.25,.9,.55,1.31,.88,.44,.36,.55,.86,.41,1.41-.3,1.23-1.68,1.99-2.98,1.64-1.09-.29-1.63-.94-1.78-2.18-.07-.57-.55-.98-1.09-.95-.56,.04-.98,.48-.98,1.05,0,.22,0,.45,.05,.67,.35,1.75,1.44,2.84,3.1,3.38,.22,.07,.27,.16,.27,.36-.01,.39-.01,.78,0,1.17,.02,.61,.5,1.05,1.07,1.04,.57-.01,1-.46,1.02-1.06,0-.38,.01-.75,0-1.13,0-.21,.05-.3,.27-.37,.38-.12,.75-.28,1.1-.47,2.19-1.25,3.28-4.71,.24-6.68-.67-.43-1.4-.77-2.1-1.16-.76-.42-1.55-.81-2.26-1.3-.82-.57-.92-1.39-.38-2.23,.55-.87,1.67-1.28,2.73-1.01,1.05,.27,1.68,1.02,1.76,2.12,.04,.59,.5,1.01,1.07,1,.58-.02,1.03-.5,1.02-1.09,0-.27-.04-.54-.1-.8-.4-1.63-1.43-2.67-3-3.18-.25-.08-.37-.17-.35-.46,.03-.32,0-.64,0-.95,0-.69-.43-1.17-1.04-1.18-.61,0-1.05,.48-1.05,1.17,0,.43,0,.87,0,1.31-.91,.24-1.69,.66-2.32,1.33Z"/>
  </g>
</svg>